<?xml version="1.0" encoding="utf-8"?><svg viewBox="0 0 32 32" xmlns="http://www.w3.org/2000/svg" xmlns:xlink="http://www.w3.org/1999/xlink"><style>:root>svg{display:none}:root>svg:target{display:block}</style><svg fill="none" viewBox="0 0 16 21" id="favorite-01" xmlns="http://www.w3.org/2000/svg">
    <path d="M1 0h14a1 1 0 0 1 1 1v19.143a.5.5 0 0 1-.766.424L8 16.03.766 20.566A.5.5 0 0 1 0 20.143V1a1 1 0 0 1 1-1Zm13 2H2v15.432l6-3.761 6 3.761V2Z" fill="#fff"/>
</svg><svg fill="none" viewBox="0 0 24 24" id="favorite-02" xmlns="http://www.w3.org/2000/svg">
    <path fill-rule="evenodd" clip-rule="evenodd" d="m12 17.025 6 2.667V4.222a.688.688 0 0 0-.209-.529c-.145-.15-.264-.193-.434-.193H6.643c-.17 0-.289.044-.433.193a.687.687 0 0 0-.21.53v15.469l6-2.667Zm-5 1.128 5-2.222 5 2.222V4.5H7v13.653ZM6.643 4.5Zm10.714 0Zm1.514-1.848c.42.436.629.96.629 1.57V22L12 18.667 4.5 22V4.222c0-.61.21-1.134.63-1.57C5.55 2.217 6.054 2 6.643 2h10.714c.59 0 1.094.217 1.514.652ZM20.5 23.54 12 19.76l-8.5 3.778V4.222c0-.867.308-1.64.91-2.264A3.025 3.025 0 0 1 6.643 1h10.714c.869 0 1.63.333 2.233.957l.002.002c.6.624.908 1.397.908 2.263V23.54Z" fill="#fff"/>
    <path d="M5.13 2.652c-.42.436-.63.96-.63 1.57V22l7.5-3.333L19.5 22V4.222c0-.61-.21-1.134-.629-1.57A2.03 2.03 0 0 0 17.357 2H6.643c-.59 0-1.094.217-1.513.652Z" fill="#1D85F8"/>
</svg><svg fill="none" viewBox="0 0 20 14" id="menu" xmlns="http://www.w3.org/2000/svg">
    <rect width="20" height="2.5" rx="1" fill="#fff"/>
    <rect y="5.5" width="20" height="2.5" rx="1" fill="#fff"/>
    <rect y="11" width="20" height="2.5" rx="1" fill="#fff"/>
</svg><svg fill="none" viewBox="0 0 24 24" id="mobile-search-btn" xmlns="http://www.w3.org/2000/svg">
    <mask id="da" style="mask-type:alpha" maskUnits="userSpaceOnUse" x="0" y="0" width="24" height="24">
        <path fill="#D9D9D9" d="M0 0h24v24H0z"/>
    </mask>
    <g mask="url(#da)">
        <path d="m19.6 21-6.3-6.3A6.096 6.096 0 0 1 9.5 16c-1.817 0-3.354-.629-4.612-1.887C3.629 12.854 3 11.317 3 9.5c0-1.817.63-3.354 1.888-4.613C6.146 3.629 7.683 3 9.5 3c1.817 0 3.354.629 4.613 1.887C15.371 6.146 16 7.683 16 9.5a6.096 6.096 0 0 1-1.3 3.8l6.3 6.3-1.4 1.4ZM9.5 14c1.25 0 2.313-.437 3.188-1.312S14 10.75 14 9.5c0-1.25-.437-2.313-1.312-3.188S10.75 5 9.5 5c-1.25 0-2.313.437-3.188 1.312S5 8.25 5 9.5c0 1.25.437 2.313 1.312 3.188S8.25 14 9.5 14Z" fill="#fff"/>
    </g>
</svg><svg fill="none" viewBox="0 0 32 32" id="search" xmlns="http://www.w3.org/2000/svg">
    <path d="M14.59 5.75a8.591 8.591 0 1 0 0 17.182 8.591 8.591 0 0 0 0-17.182Z" stroke="#fff" stroke-width="2" stroke-miterlimit="10"/>
    <path d="m21 20.75 6 6" stroke="#fff" stroke-width="2" stroke-miterlimit="10" stroke-linecap="round"/>
</svg><svg fill="none" viewBox="0 0 24 24" id="vk" xmlns="http://www.w3.org/2000/svg">
    <path d="M20 24H4c-2.2 0-4-1.8-4-4V4c0-2.2 1.8-4 4-4h16c2.2 0 4 1.8 4 4v16c0 2.2-1.8 4-4 4ZM19 8.3c.1-.3 0-.6-.5-.6H17c-.4 0-.6.2-.7.5 0 0-.8 2-2 3.3-.4.4-.5.5-.7.5-.1 0-.2-.1-.2-.5V8.3c0-.4-.1-.6-.5-.6h-2.5c-.3 0-.4.2-.4.3 0 .4.6.5.6 1.6v2.3c0 .5-.1.6-.3.6-.5 0-1.9-2-2.6-4.2-.2-.4-.3-.6-.7-.6H5.4c-.5 0-.5.2-.5.5 0 .4.5 2.5 2.5 5.3 1.3 1.9 3.2 2.9 4.9 2.9 1 0 1.1-.2 1.1-.6v-1.4c0-.5.1-.5.4-.5.2 0 .6.1 1.6 1 1.1 1.1 1.3 1.6 1.9 1.6h1.6c.5 0 .7-.2.6-.7-.1-.4-.7-1.1-1.3-1.9l-1.1-1.1c-.2-.3-.2-.4 0-.7-.2-.2 1.7-2.9 1.9-3.8Z" fill="#fff"/>
</svg></svg>