<svg width="24" height="24" viewBox="0 0 24 24" fill="none" xmlns="http://www.w3.org/2000/svg">
<path fill-rule="evenodd" clip-rule="evenodd" d="M12 17.0252L18 19.6919V4.22222C18 3.99483 17.9377 3.84582 17.7913 3.69343C17.6461 3.54345 17.5275 3.5 17.3571 3.5H6.64286C6.4722 3.5 6.35432 3.54352 6.20977 3.69343C6.06235 3.8463 6 3.99516 6 4.22222V19.6919L12 17.0252ZM7 18.1531L12 15.9309L17 18.1531V4.5H7V18.1531ZM6.64296 4.5C6.64283 4.5 6.6429 4.5 6.64296 4.5V4.5ZM17.3571 4.5C17.3572 4.5 17.3573 4.5 17.3571 4.5V4.5ZM18.8711 2.65222C19.2904 3.08778 19.5 3.61111 19.5 4.22222V22L12 18.6667L4.5 22V4.22222C4.5 3.61111 4.71 3.08778 5.13 2.65222C5.54929 2.21741 6.05357 2 6.64286 2H17.3571C17.9464 2 18.4511 2.21741 18.8711 2.65222ZM20.5 23.5388L12 19.761L3.5 23.5388V4.22222C3.5 3.35508 3.80843 2.5821 4.41016 1.95809C5.0126 1.33333 5.77449 1 6.64286 1H17.3571C18.2255 1 18.9874 1.33326 19.5903 1.95747L19.5915 1.9587C20.1923 2.58282 20.5 3.35561 20.5 4.22222V23.5388Z" fill="white"/>
<path d="M5.13 2.65222C4.71 3.08778 4.5 3.61111 4.5 4.22222V22L12 18.6667L19.5 22V4.22222C19.5 3.61111 19.2904 3.08778 18.8711 2.65222C18.4511 2.21741 17.9464 2 17.3571 2H6.64286C6.05357 2 5.54929 2.21741 5.13 2.65222Z" fill="#1D85F8"/>
</svg>
